{
	"asset":{
		"generator":"Khronos glTF Blender I/O v5.1.18",
		"version":"2.0"
	},
	"scene":0,
	"scenes":[
		{
			"name":"Scene",
			"nodes":[
				0
			]
		}
	],
	"nodes":[
		{
			"mesh":0,
			"name":"model"
		}
	],
	"materials":[
		{
			"doubleSided":true,
			"name":"model",
			"normalTexture":{
				"index":0
			},
			"pbrMetallicRoughness":{
				"baseColorTexture":{
					"index":1
				},
				"metallicRoughnessTexture":{
					"index":2
				}
			}
		}
	],
	"meshes":[
		{
			"name":"model",
			"primitives":[
				{
					"attributes":{
						"POSITION":0,
						"NORMAL":1,
						"TEXCOORD_0":2
					},
					"indices":3,
					"material":0
				}
			]
		}
	],
	"textures":[
		{
			"sampler":0,
			"source":0
		},
		{
			"sampler":0,
			"source":1
		},
		{
			"sampler":0,
			"source":2
		}
	],
	"images":[
		{
			"mimeType":"image/png",
			"name":"texture_normal",
			"uri":"texture_normal.png"
		},
		{
			"mimeType":"image/png",
			"name":"texture_diffuse",
			"uri":"texture_diffuse.png"
		},
		{
			"mimeType":"image/png",
			"name":"texture_metallic-texture_roughness",
			"uri":"texture_metallic-texture_roughness.png"
		}
	],
	"accessors":[
		{
			"bufferView":0,
			"componentType":5126,
			"count":486818,
			"max":[
				0.7833297848701477,
				1.8384432792663574,
				0.5343644022941589
			],
			"min":[
				-0.7830900549888611,
				0,
				-0.5359731912612915
			],
			"type":"VEC3"
		},
		{
			"bufferView":1,
			"componentType":5126,
			"count":486818,
			"type":"VEC3"
		},
		{
			"bufferView":2,
			"componentType":5126,
			"count":486818,
			"type":"VEC2"
		},
		{
			"bufferView":3,
			"componentType":5125,
			"count":1499898,
			"type":"SCALAR"
		}
	],
	"bufferViews":[
		{
			"buffer":0,
			"byteLength":5841816,
			"byteOffset":0,
			"target":34962
		},
		{
			"buffer":0,
			"byteLength":5841816,
			"byteOffset":5841816,
			"target":34962
		},
		{
			"buffer":0,
			"byteLength":3894544,
			"byteOffset":11683632,
			"target":34962
		},
		{
			"buffer":0,
			"byteLength":5999592,
			"byteOffset":15578176,
			"target":34963
		}
	],
	"samplers":[
		{
			"magFilter":9729,
			"minFilter":9987
		}
	],
	"buffers":[
		{
			"byteLength":21577768,
			"uri":"decor_altar.bin"
		}
	]
}
