{
	"asset":{
		"generator":"Khronos glTF Blender I/O v5.1.18",
		"version":"2.0"
	},
	"scene":0,
	"scenes":[
		{
			"name":"Scene",
			"nodes":[
				0
			]
		}
	],
	"nodes":[
		{
			"mesh":0,
			"name":"model"
		}
	],
	"materials":[
		{
			"doubleSided":true,
			"name":"model.001",
			"normalTexture":{
				"index":0
			},
			"pbrMetallicRoughness":{
				"baseColorTexture":{
					"index":1
				},
				"metallicRoughnessTexture":{
					"index":2
				}
			}
		}
	],
	"meshes":[
		{
			"name":"model.001",
			"primitives":[
				{
					"attributes":{
						"POSITION":0,
						"NORMAL":1,
						"TEXCOORD_0":2
					},
					"indices":3,
					"material":0
				}
			]
		}
	],
	"textures":[
		{
			"sampler":0,
			"source":0
		},
		{
			"sampler":0,
			"source":1
		},
		{
			"sampler":0,
			"source":2
		}
	],
	"images":[
		{
			"mimeType":"image/png",
			"name":"texture_normal",
			"uri":"texture_normal.png"
		},
		{
			"mimeType":"image/png",
			"name":"texture_diffuse",
			"uri":"texture_diffuse.png"
		},
		{
			"mimeType":"image/png",
			"name":"texture_metallic-texture_roughness",
			"uri":"texture_metallic-texture_roughness.png"
		}
	],
	"accessors":[
		{
			"bufferView":0,
			"componentType":5126,
			"count":58716,
			"max":[
				0.838857889175415,
				0.35589906573295593,
				0.7391800284385681
			],
			"min":[
				-0.9251528978347778,
				-0.01118067093193531,
				-0.8102511763572693
			],
			"type":"VEC3"
		},
		{
			"bufferView":1,
			"componentType":5126,
			"count":58716,
			"type":"VEC3"
		},
		{
			"bufferView":2,
			"componentType":5126,
			"count":58716,
			"type":"VEC2"
		},
		{
			"bufferView":3,
			"componentType":5123,
			"count":149880,
			"type":"SCALAR"
		}
	],
	"bufferViews":[
		{
			"buffer":0,
			"byteLength":704592,
			"byteOffset":0,
			"target":34962
		},
		{
			"buffer":0,
			"byteLength":704592,
			"byteOffset":704592,
			"target":34962
		},
		{
			"buffer":0,
			"byteLength":469728,
			"byteOffset":1409184,
			"target":34962
		},
		{
			"buffer":0,
			"byteLength":299760,
			"byteOffset":1878912,
			"target":34963
		}
	],
	"samplers":[
		{
			"magFilter":9729,
			"minFilter":9987
		}
	],
	"buffers":[
		{
			"byteLength":2178672,
			"uri":"decor_bone_pile.bin"
		}
	]
}
