{
	"asset":{
		"generator":"Khronos glTF Blender I/O v5.1.18",
		"version":"2.0"
	},
	"scene":0,
	"scenes":[
		{
			"name":"Scene",
			"nodes":[
				0
			]
		}
	],
	"nodes":[
		{
			"mesh":0,
			"name":"model"
		}
	],
	"materials":[
		{
			"doubleSided":true,
			"name":"model",
			"normalTexture":{
				"index":0
			},
			"pbrMetallicRoughness":{
				"baseColorTexture":{
					"index":1
				},
				"metallicRoughnessTexture":{
					"index":2
				}
			}
		}
	],
	"meshes":[
		{
			"name":"model",
			"primitives":[
				{
					"attributes":{
						"POSITION":0,
						"NORMAL":1,
						"TEXCOORD_0":2
					},
					"indices":3,
					"material":0
				}
			]
		}
	],
	"textures":[
		{
			"sampler":0,
			"source":0
		},
		{
			"sampler":0,
			"source":1
		},
		{
			"sampler":0,
			"source":2
		}
	],
	"images":[
		{
			"mimeType":"image/png",
			"name":"texture_normal",
			"uri":"texture_normal.png"
		},
		{
			"mimeType":"image/png",
			"name":"texture_diffuse",
			"uri":"texture_diffuse.png"
		},
		{
			"mimeType":"image/png",
			"name":"texture_metallic-texture_roughness",
			"uri":"texture_metallic-texture_roughness.png"
		}
	],
	"accessors":[
		{
			"bufferView":0,
			"componentType":5126,
			"count":29811,
			"max":[
				0.92661452293396,
				0.08710529655218124,
				0.9263290166854858
			],
			"min":[
				-0.9265613555908203,
				-0.005437835119664669,
				-0.9264800548553467
			],
			"type":"VEC3"
		},
		{
			"bufferView":1,
			"componentType":5126,
			"count":29811,
			"type":"VEC3"
		},
		{
			"bufferView":2,
			"componentType":5126,
			"count":29811,
			"type":"VEC2"
		},
		{
			"bufferView":3,
			"componentType":5123,
			"count":74907,
			"type":"SCALAR"
		}
	],
	"bufferViews":[
		{
			"buffer":0,
			"byteLength":357732,
			"byteOffset":0,
			"target":34962
		},
		{
			"buffer":0,
			"byteLength":357732,
			"byteOffset":357732,
			"target":34962
		},
		{
			"buffer":0,
			"byteLength":238488,
			"byteOffset":715464,
			"target":34962
		},
		{
			"buffer":0,
			"byteLength":149814,
			"byteOffset":953952,
			"target":34963
		}
	],
	"samplers":[
		{
			"magFilter":9729,
			"minFilter":9987
		}
	],
	"buffers":[
		{
			"byteLength":1103768,
			"uri":"decor_ritual_circle.bin"
		}
	]
}
