{
	"asset":{
		"generator":"Khronos glTF Blender I/O v5.1.18",
		"version":"2.0"
	},
	"scene":0,
	"scenes":[
		{
			"name":"Scene",
			"nodes":[
				0
			]
		}
	],
	"nodes":[
		{
			"mesh":0,
			"name":"model"
		}
	],
	"materials":[
		{
			"doubleSided":true,
			"name":"model",
			"normalTexture":{
				"index":0
			},
			"pbrMetallicRoughness":{
				"baseColorTexture":{
					"index":1
				},
				"metallicRoughnessTexture":{
					"index":2
				}
			}
		}
	],
	"meshes":[
		{
			"name":"model",
			"primitives":[
				{
					"attributes":{
						"POSITION":0,
						"NORMAL":1,
						"TEXCOORD_0":2
					},
					"indices":3,
					"material":0
				}
			]
		}
	],
	"textures":[
		{
			"sampler":0,
			"source":0
		},
		{
			"sampler":0,
			"source":1
		},
		{
			"sampler":0,
			"source":2
		}
	],
	"images":[
		{
			"mimeType":"image/png",
			"name":"texture_normal",
			"uri":"texture_normal.png"
		},
		{
			"mimeType":"image/png",
			"name":"texture_diffuse",
			"uri":"texture_diffuse.png"
		},
		{
			"mimeType":"image/png",
			"name":"texture_metallic-texture_roughness",
			"uri":"texture_metallic-texture_roughness.png"
		}
	],
	"accessors":[
		{
			"bufferView":0,
			"componentType":5126,
			"count":92314,
			"max":[
				0.5776162147521973,
				1.8288698196411133,
				0.5804648995399475
			],
			"min":[
				-0.5806469917297363,
				-0.004518019966781139,
				-0.579599142074585
			],
			"type":"VEC3"
		},
		{
			"bufferView":1,
			"componentType":5126,
			"count":92314,
			"type":"VEC3"
		},
		{
			"bufferView":2,
			"componentType":5126,
			"count":92314,
			"type":"VEC2"
		},
		{
			"bufferView":3,
			"componentType":5125,
			"count":224994,
			"type":"SCALAR"
		}
	],
	"bufferViews":[
		{
			"buffer":0,
			"byteLength":1107768,
			"byteOffset":0,
			"target":34962
		},
		{
			"buffer":0,
			"byteLength":1107768,
			"byteOffset":1107768,
			"target":34962
		},
		{
			"buffer":0,
			"byteLength":738512,
			"byteOffset":2215536,
			"target":34962
		},
		{
			"buffer":0,
			"byteLength":899976,
			"byteOffset":2954048,
			"target":34963
		}
	],
	"samplers":[
		{
			"magFilter":9729,
			"minFilter":9987
		}
	],
	"buffers":[
		{
			"byteLength":3854024,
			"uri":"decor_iron_cage.bin"
		}
	]
}
