{
	"asset":{
		"generator":"Khronos glTF Blender I/O v5.1.18",
		"version":"2.0"
	},
	"scene":0,
	"scenes":[
		{
			"name":"Scene",
			"nodes":[
				0
			]
		}
	],
	"nodes":[
		{
			"mesh":0,
			"name":"model"
		}
	],
	"materials":[
		{
			"doubleSided":true,
			"name":"model",
			"normalTexture":{
				"index":0
			},
			"pbrMetallicRoughness":{
				"baseColorTexture":{
					"index":1
				},
				"metallicRoughnessTexture":{
					"index":2
				}
			}
		}
	],
	"meshes":[
		{
			"name":"model",
			"primitives":[
				{
					"attributes":{
						"POSITION":0,
						"NORMAL":1,
						"TEXCOORD_0":2
					},
					"indices":3,
					"material":0
				}
			]
		}
	],
	"textures":[
		{
			"sampler":0,
			"source":0
		},
		{
			"sampler":0,
			"source":1
		},
		{
			"sampler":0,
			"source":2
		}
	],
	"images":[
		{
			"mimeType":"image/png",
			"name":"texture_normal",
			"uri":"texture_normal.png"
		},
		{
			"mimeType":"image/png",
			"name":"texture_diffuse",
			"uri":"texture_diffuse.png"
		},
		{
			"mimeType":"image/png",
			"name":"texture_metallic-texture_roughness",
			"uri":"texture_metallic-texture_roughness.png"
		}
	],
	"accessors":[
		{
			"bufferView":0,
			"componentType":5126,
			"count":240483,
			"max":[
				0.8366743326187134,
				1.7112343311309814,
				0.6983738541603088
			],
			"min":[
				-0.8361685872077942,
				8.422136306762695e-05,
				-0.714034378528595
			],
			"type":"VEC3"
		},
		{
			"bufferView":1,
			"componentType":5126,
			"count":240483,
			"type":"VEC3"
		},
		{
			"bufferView":2,
			"componentType":5126,
			"count":240483,
			"type":"VEC2"
		},
		{
			"bufferView":3,
			"componentType":5125,
			"count":449967,
			"type":"SCALAR"
		}
	],
	"bufferViews":[
		{
			"buffer":0,
			"byteLength":2885796,
			"byteOffset":0,
			"target":34962
		},
		{
			"buffer":0,
			"byteLength":2885796,
			"byteOffset":2885796,
			"target":34962
		},
		{
			"buffer":0,
			"byteLength":1923864,
			"byteOffset":5771592,
			"target":34962
		},
		{
			"buffer":0,
			"byteLength":1799868,
			"byteOffset":7695456,
			"target":34963
		}
	],
	"samplers":[
		{
			"magFilter":9729,
			"minFilter":9987
		}
	],
	"buffers":[
		{
			"byteLength":9495324,
			"uri":"decor_gargoyle.bin"
		}
	]
}
