{
	"asset":{
		"generator":"Khronos glTF Blender I/O v5.1.18",
		"version":"2.0"
	},
	"scene":0,
	"scenes":[
		{
			"name":"Scene",
			"nodes":[
				0
			]
		}
	],
	"nodes":[
		{
			"mesh":0,
			"name":"model"
		}
	],
	"materials":[
		{
			"doubleSided":true,
			"name":"model",
			"normalTexture":{
				"index":0
			},
			"pbrMetallicRoughness":{
				"baseColorTexture":{
					"index":1
				},
				"metallicRoughnessTexture":{
					"index":2
				}
			}
		}
	],
	"meshes":[
		{
			"name":"model",
			"primitives":[
				{
					"attributes":{
						"POSITION":0,
						"NORMAL":1,
						"TEXCOORD_0":2
					},
					"indices":3,
					"material":0
				}
			]
		}
	],
	"textures":[
		{
			"sampler":0,
			"source":0
		},
		{
			"sampler":0,
			"source":1
		},
		{
			"sampler":0,
			"source":2
		}
	],
	"images":[
		{
			"mimeType":"image/png",
			"name":"texture_normal",
			"uri":"texture_normal.png"
		},
		{
			"mimeType":"image/png",
			"name":"texture_diffuse",
			"uri":"texture_diffuse.png"
		},
		{
			"mimeType":"image/png",
			"name":"texture_metallic-texture_roughness",
			"uri":"texture_metallic-texture_roughness.png"
		}
	],
	"accessors":[
		{
			"bufferView":0,
			"componentType":5126,
			"count":57567,
			"max":[
				0.30313640832901,
				1.8438010215759277,
				0.32739007472991943
			],
			"min":[
				-0.3015836179256439,
				-2.4618675524834543e-05,
				-0.2765871584415436
			],
			"type":"VEC3"
		},
		{
			"bufferView":1,
			"componentType":5126,
			"count":57567,
			"type":"VEC3"
		},
		{
			"bufferView":2,
			"componentType":5126,
			"count":57567,
			"type":"VEC2"
		},
		{
			"bufferView":3,
			"componentType":5123,
			"count":149991,
			"type":"SCALAR"
		}
	],
	"bufferViews":[
		{
			"buffer":0,
			"byteLength":690804,
			"byteOffset":0,
			"target":34962
		},
		{
			"buffer":0,
			"byteLength":690804,
			"byteOffset":690804,
			"target":34962
		},
		{
			"buffer":0,
			"byteLength":460536,
			"byteOffset":1381608,
			"target":34962
		},
		{
			"buffer":0,
			"byteLength":299982,
			"byteOffset":1842144,
			"target":34963
		}
	],
	"samplers":[
		{
			"magFilter":9729,
			"minFilter":9987
		}
	],
	"buffers":[
		{
			"byteLength":2142128,
			"uri":"decor_column.bin"
		}
	]
}
