{
	"asset":{
		"generator":"Khronos glTF Blender I/O v5.1.18",
		"version":"2.0"
	},
	"scene":0,
	"scenes":[
		{
			"name":"Scene",
			"nodes":[
				0
			]
		}
	],
	"nodes":[
		{
			"mesh":0,
			"name":"model"
		}
	],
	"materials":[
		{
			"doubleSided":true,
			"name":"model",
			"normalTexture":{
				"index":0
			},
			"pbrMetallicRoughness":{
				"baseColorTexture":{
					"index":1
				},
				"metallicRoughnessTexture":{
					"index":2
				}
			}
		}
	],
	"meshes":[
		{
			"name":"model",
			"primitives":[
				{
					"attributes":{
						"POSITION":0,
						"NORMAL":1,
						"TEXCOORD_0":2
					},
					"indices":3,
					"material":0
				}
			]
		}
	],
	"textures":[
		{
			"sampler":0,
			"source":0
		},
		{
			"sampler":0,
			"source":1
		},
		{
			"sampler":0,
			"source":2
		}
	],
	"images":[
		{
			"mimeType":"image/png",
			"name":"texture_normal",
			"uri":"texture_normal.png"
		},
		{
			"mimeType":"image/png",
			"name":"texture_diffuse",
			"uri":"texture_diffuse.png"
		},
		{
			"mimeType":"image/png",
			"name":"texture_metallic-texture_roughness",
			"uri":"texture_metallic-texture_roughness.png"
		}
	],
	"accessors":[
		{
			"bufferView":0,
			"componentType":5126,
			"count":180804,
			"max":[
				0.7225683927536011,
				1.8364909887313843,
				0.09581249952316284
			],
			"min":[
				-0.7234237790107727,
				-0.0013252863427624106,
				-0.09914054721593857
			],
			"type":"VEC3"
		},
		{
			"bufferView":1,
			"componentType":5126,
			"count":180804,
			"type":"VEC3"
		},
		{
			"bufferView":2,
			"componentType":5126,
			"count":180804,
			"type":"VEC2"
		},
		{
			"bufferView":3,
			"componentType":5125,
			"count":374916,
			"type":"SCALAR"
		}
	],
	"bufferViews":[
		{
			"buffer":0,
			"byteLength":2169648,
			"byteOffset":0,
			"target":34962
		},
		{
			"buffer":0,
			"byteLength":2169648,
			"byteOffset":2169648,
			"target":34962
		},
		{
			"buffer":0,
			"byteLength":1446432,
			"byteOffset":4339296,
			"target":34962
		},
		{
			"buffer":0,
			"byteLength":1499664,
			"byteOffset":5785728,
			"target":34963
		}
	],
	"samplers":[
		{
			"magFilter":9729,
			"minFilter":9987
		}
	],
	"buffers":[
		{
			"byteLength":7285392,
			"uri":"decor_gothic_panel.bin"
		}
	]
}
