{
	"asset":{
		"generator":"Khronos glTF Blender I/O v5.1.18",
		"version":"2.0"
	},
	"scene":0,
	"scenes":[
		{
			"name":"Scene",
			"nodes":[
				0
			]
		}
	],
	"nodes":[
		{
			"mesh":0,
			"name":"model"
		}
	],
	"materials":[
		{
			"doubleSided":true,
			"name":"model",
			"normalTexture":{
				"index":0
			},
			"pbrMetallicRoughness":{
				"baseColorTexture":{
					"index":1
				},
				"metallicRoughnessTexture":{
					"index":2
				}
			}
		}
	],
	"meshes":[
		{
			"name":"model",
			"primitives":[
				{
					"attributes":{
						"POSITION":0,
						"NORMAL":1,
						"TEXCOORD_0":2
					},
					"indices":3,
					"material":0
				}
			]
		}
	],
	"textures":[
		{
			"sampler":0,
			"source":0
		},
		{
			"sampler":0,
			"source":1
		},
		{
			"sampler":0,
			"source":2
		}
	],
	"images":[
		{
			"mimeType":"image/png",
			"name":"texture_normal",
			"uri":"texture_normal.png"
		},
		{
			"mimeType":"image/png",
			"name":"texture_diffuse",
			"uri":"texture_diffuse.png"
		},
		{
			"mimeType":"image/png",
			"name":"texture_metallic-texture_roughness",
			"uri":"texture_metallic-texture_roughness.png"
		}
	],
	"accessors":[
		{
			"bufferView":0,
			"componentType":5126,
			"count":437836,
			"max":[
				0.45473775267601013,
				1.7106025218963623,
				0.43486857414245605
			],
			"min":[
				-0.4562074840068817,
				0,
				-0.43636104464530945
			],
			"type":"VEC3"
		},
		{
			"bufferView":1,
			"componentType":5126,
			"count":437836,
			"type":"VEC3"
		},
		{
			"bufferView":2,
			"componentType":5126,
			"count":437836,
			"type":"VEC2"
		},
		{
			"bufferView":3,
			"componentType":5125,
			"count":1499970,
			"type":"SCALAR"
		}
	],
	"bufferViews":[
		{
			"buffer":0,
			"byteLength":5254032,
			"byteOffset":0,
			"target":34962
		},
		{
			"buffer":0,
			"byteLength":5254032,
			"byteOffset":5254032,
			"target":34962
		},
		{
			"buffer":0,
			"byteLength":3502688,
			"byteOffset":10508064,
			"target":34962
		},
		{
			"buffer":0,
			"byteLength":5999880,
			"byteOffset":14010752,
			"target":34963
		}
	],
	"samplers":[
		{
			"magFilter":9729,
			"minFilter":9987
		}
	],
	"buffers":[
		{
			"byteLength":20010632,
			"uri":"decor_flesh_pillar.bin"
		}
	]
}
