{
	"asset":{
		"generator":"Khronos glTF Blender I/O v5.1.18",
		"version":"2.0"
	},
	"scene":0,
	"scenes":[
		{
			"name":"Scene",
			"nodes":[
				0
			]
		}
	],
	"nodes":[
		{
			"mesh":0,
			"name":"model"
		}
	],
	"materials":[
		{
			"doubleSided":true,
			"name":"model",
			"normalTexture":{
				"index":0
			},
			"pbrMetallicRoughness":{
				"baseColorTexture":{
					"index":1
				},
				"metallicRoughnessTexture":{
					"index":2
				}
			}
		}
	],
	"meshes":[
		{
			"name":"model",
			"primitives":[
				{
					"attributes":{
						"POSITION":0,
						"NORMAL":1,
						"TEXCOORD_0":2
					},
					"indices":3,
					"material":0
				}
			]
		}
	],
	"textures":[
		{
			"sampler":0,
			"source":0
		},
		{
			"sampler":0,
			"source":1
		},
		{
			"sampler":0,
			"source":2
		}
	],
	"images":[
		{
			"mimeType":"image/png",
			"name":"texture_normal",
			"uri":"texture_normal.png"
		},
		{
			"mimeType":"image/png",
			"name":"texture_diffuse",
			"uri":"texture_diffuse.png"
		},
		{
			"mimeType":"image/png",
			"name":"texture_metallic-texture_roughness",
			"uri":"texture_metallic-texture_roughness.png"
		}
	],
	"accessors":[
		{
			"bufferView":0,
			"componentType":5126,
			"count":30485,
			"max":[
				0.9446001648902893,
				0.38180720806121826,
				0.8773375749588013
			],
			"min":[
				-0.6832408308982849,
				-0.006888917647302151,
				-0.8825835585594177
			],
			"type":"VEC3"
		},
		{
			"bufferView":1,
			"componentType":5126,
			"count":30485,
			"type":"VEC3"
		},
		{
			"bufferView":2,
			"componentType":5126,
			"count":30485,
			"type":"VEC2"
		},
		{
			"bufferView":3,
			"componentType":5123,
			"count":74910,
			"type":"SCALAR"
		}
	],
	"bufferViews":[
		{
			"buffer":0,
			"byteLength":365820,
			"byteOffset":0,
			"target":34962
		},
		{
			"buffer":0,
			"byteLength":365820,
			"byteOffset":365820,
			"target":34962
		},
		{
			"buffer":0,
			"byteLength":243880,
			"byteOffset":731640,
			"target":34962
		},
		{
			"buffer":0,
			"byteLength":149820,
			"byteOffset":975520,
			"target":34963
		}
	],
	"samplers":[
		{
			"magFilter":9729,
			"minFilter":9987
		}
	],
	"buffers":[
		{
			"byteLength":1125340,
			"uri":"decor_lava_crack.bin"
		}
	]
}
