{
	"asset":{
		"generator":"Khronos glTF Blender I/O v5.1.18",
		"version":"2.0"
	},
	"scene":0,
	"scenes":[
		{
			"name":"Scene",
			"nodes":[
				0
			]
		}
	],
	"nodes":[
		{
			"mesh":0,
			"name":"model"
		}
	],
	"materials":[
		{
			"doubleSided":true,
			"name":"model",
			"normalTexture":{
				"index":0
			},
			"pbrMetallicRoughness":{
				"baseColorTexture":{
					"index":1
				},
				"metallicRoughnessTexture":{
					"index":2
				}
			}
		}
	],
	"meshes":[
		{
			"name":"model",
			"primitives":[
				{
					"attributes":{
						"POSITION":0,
						"NORMAL":1,
						"TEXCOORD_0":2
					},
					"indices":3,
					"material":0
				}
			]
		}
	],
	"textures":[
		{
			"sampler":0,
			"source":0
		},
		{
			"sampler":0,
			"source":1
		},
		{
			"sampler":0,
			"source":2
		}
	],
	"images":[
		{
			"mimeType":"image/png",
			"name":"texture_normal",
			"uri":"texture_normal.png"
		},
		{
			"mimeType":"image/png",
			"name":"texture_diffuse",
			"uri":"texture_diffuse.png"
		},
		{
			"mimeType":"image/png",
			"name":"texture_metallic-texture_roughness",
			"uri":"texture_metallic-texture_roughness.png"
		}
	],
	"accessors":[
		{
			"bufferView":0,
			"componentType":5126,
			"count":412061,
			"max":[
				0.8854736685752869,
				1.8353984355926514,
				0.2614341676235199
			],
			"min":[
				-0.8853754997253418,
				0,
				-0.2614183723926544
			],
			"type":"VEC3"
		},
		{
			"bufferView":1,
			"componentType":5126,
			"count":412061,
			"type":"VEC3"
		},
		{
			"bufferView":2,
			"componentType":5126,
			"count":412061,
			"type":"VEC2"
		},
		{
			"bufferView":3,
			"componentType":5125,
			"count":1497933,
			"type":"SCALAR"
		}
	],
	"bufferViews":[
		{
			"buffer":0,
			"byteLength":4944732,
			"byteOffset":0,
			"target":34962
		},
		{
			"buffer":0,
			"byteLength":4944732,
			"byteOffset":4944732,
			"target":34962
		},
		{
			"buffer":0,
			"byteLength":3296488,
			"byteOffset":9889464,
			"target":34962
		},
		{
			"buffer":0,
			"byteLength":5991732,
			"byteOffset":13185952,
			"target":34963
		}
	],
	"samplers":[
		{
			"magFilter":9729,
			"minFilter":9987
		}
	],
	"buffers":[
		{
			"byteLength":19177684,
			"uri":"decor_broken_arch.bin"
		}
	]
}
